<svg width="80" height="80" viewBox="0 0 80 80" fill="none" xmlns="http://www.w3.org/2000/svg">
<path d="M40 80C62.0914 80 80 62.0914 80 40C80 17.9086 62.0914 0 40 0C17.9086 0 0 17.9086 0 40C0 62.0914 17.9086 80 40 80Z" fill="white"/>
<path d="M61.2 50.8C61.2 51.712 60.696 52.504 59.928 52.912L40.968 63.568C40.584 63.856 40.104 64 39.6 64C39.096 64 38.616 63.856 38.232 63.568L19.272 52.912C18.504 52.504 18 51.712 18 50.8V29.2C18 28.288 18.504 27.496 19.272 27.088L38.232 16.432C38.616 16.144 39.096 16 39.6 16C40.104 16 40.584 16.144 40.968 16.432L59.928 27.088C60.696 27.496 61.2 28.288 61.2 29.2V50.8ZM39.6 21.16L35.064 23.728L49.2 31.864L53.904 29.2L39.6 21.16ZM25.296 29.2L39.6 37.24L44.304 34.6L30.192 26.44L25.296 29.2ZM22.8 49.384L37.2 57.496V41.392L22.8 33.304V49.384ZM56.4 49.384V33.304L42 41.392V57.496L56.4 49.384Z" fill="#3DCC77"/>
</svg>
